<?xml version="1.0" encoding="utf-8"?>
<!-- Generator: Adobe Illustrator 26.1.0, SVG Export Plug-In . SVG Version: 6.00 Build 0)  -->
<svg version="1.1" id="Layer_1" xmlns="http://www.w3.org/2000/svg" xmlns:xlink="http://www.w3.org/1999/xlink" x="0px" y="0px"
	 viewBox="0 0 640 640" style="enable-background:new 0 0 640 640;" xml:space="preserve">
<style type="text/css">
	.st0{fill:#C8CACC;}
</style>
<path class="st0" d="M513.6,117.5C572.4,165.3,610,238.3,610,320s-37.6,154.8-96.4,202.5c-9.3,7.6-23,6.2-30.6-3.2
	c-7.6-9.3-6.2-23,3.2-30.6c49.1-39.9,80.4-100.6,80.4-168.7s-31.3-128.9-80.4-168.8c-9.3-7.6-10.7-21.3-3.2-30.6
	C490.5,111.2,504.2,109.8,513.6,117.5L513.6,117.5z M458.7,185c39.1,31.9,64.3,80.6,64.3,135s-25.1,103.1-64.3,135
	c-9.3,7.6-23,6.2-30.6-3.2c-7.6-9.3-6.2-23,3.2-30.6c29.5-23.9,48.2-60.4,48.2-101.2s-18.8-77.3-48.2-101.3
	c-9.3-7.6-10.7-21.3-3.2-30.6C435.6,178.7,449.4,177.4,458.7,185L458.7,185z M403.9,252.5c19.5,15.9,32.1,40.2,32.1,67.5
	c0,27.3-12.6,51.6-32.1,67.5c-9.3,7.6-23,6.2-30.6-3.2c-7.6-9.3-6.2-23,3.2-30.6c9.8-8,16-20.1,16-33.7s-6.3-25.7-16-33.8
	c-9.3-7.6-10.7-21.3-3.2-30.6C380.8,246.2,394.6,244.9,403.9,252.5L403.9,252.5z M302.9,119.5c10.4,4.7,17.1,15,17.1,26.5v348
	c0,11.4-6.7,21.7-17.1,26.5s-22.7,2.8-31.2-4.8L149.4,407H88c-32,0-58-26-58-58v-58c0-32,26-58,58-58h61.4l122.3-108.7
	C280.2,116.7,292.5,114.9,302.9,119.5z"/>
</svg>
