<?xml version="1.0" encoding="utf-8"?>
<!-- Generator: Adobe Illustrator 26.1.0, SVG Export Plug-In . SVG Version: 6.00 Build 0)  -->
<svg version="1.1" id="Layer_1" xmlns="http://www.w3.org/2000/svg" xmlns:xlink="http://www.w3.org/1999/xlink" x="0px" y="0px"
	 viewBox="0 0 640 640" style="enable-background:new 0 0 640 640;" xml:space="preserve">
<style type="text/css">
	.st0{fill:#C8CACC;}
</style>
<path class="st0" d="M79.1,271.9c62.5-60,147.4-96.9,240.9-96.9s178.4,36.9,240.9,96.9c11.6,11.1,29.9,10.7,41-0.8
	c11.1-11.5,10.7-29.9-0.8-41C528.2,160,429.1,117,320,117S111.8,160,38.8,230C27.3,241.1,27,259.5,38,271.1
	C49.1,282.7,67.5,283,79.1,271.9L79.1,271.9z M320,320c51.5,0,98.4,19.1,134.3,50.8c12.1,10.6,30.4,9.4,41-2.5
	c10.6-12,9.4-30.4-2.5-41C446.7,286.6,386.2,262,320,262s-126.7,24.7-172.7,65.3c-12.1,10.6-13.1,28.9-2.5,41
	c10.6,12.1,28.9,13.1,41,2.5C221.6,339.1,268.5,320,320,320L320,320z M378,465c0-32-26-58-58-58s-58,26-58,58s26,58,58,58
	S378,497.1,378,465z"/>
</svg>
