<?xml version="1.0" encoding="utf-8"?>
<!-- Generator: Adobe Illustrator 26.1.0, SVG Export Plug-In . SVG Version: 6.00 Build 0)  -->
<svg version="1.1" id="Layer_1" xmlns="http://www.w3.org/2000/svg" xmlns:xlink="http://www.w3.org/1999/xlink" x="0px" y="0px"
	 viewBox="0 0 640 640" style="enable-background:new 0 0 640 640;" xml:space="preserve">
<style type="text/css">
	.st0{fill:#C8CACC;}
</style>
<path class="st0" d="M91.4,177.1c0-31.5,25.6-57.1,57.1-57.1h342.9c31.5,0,57.1,25.6,57.1,57.1v164.6
	c-15.2-13.6-35.2-21.8-57.1-21.8H148.6c-22,0-42,8.2-57.1,21.8V177.1z M148.6,348.6h342.9c31.5,0,57.1,25.6,57.1,57.1v57.1
	c0,31.5-25.6,57.1-57.1,57.1H148.6c-31.5,0-57.1-25.6-57.1-57.1v-57.1C91.4,374.2,117.1,348.6,148.6,348.6z M377.1,462.9
	c15.8,0,28.6-12.8,28.6-28.6s-12.8-28.6-28.6-28.6s-28.6,12.8-28.6,28.6S361.4,462.9,377.1,462.9z M491.4,434.3
	c0-15.8-12.8-28.6-28.6-28.6s-28.6,12.8-28.6,28.6s12.8,28.6,28.6,28.6S491.4,450.1,491.4,434.3z"/>
</svg>
