<?xml version="1.0" encoding="utf-8"?>
<!-- Generator: Adobe Illustrator 26.1.0, SVG Export Plug-In . SVG Version: 6.00 Build 0)  -->
<svg version="1.1" id="Layer_1" xmlns="http://www.w3.org/2000/svg" xmlns:xlink="http://www.w3.org/1999/xlink" x="0px" y="0px"
	 viewBox="0 0 640 640" style="enable-background:new 0 0 640 640;" xml:space="preserve">
<style type="text/css">
	.st0{fill:#C8CACC;}
</style>
<path class="st0" d="M348.1,120c-110.3,0-199.6,89.6-199.6,200s89.3,200,199.6,200c54.1,0,103.1-21.6,139.1-56.6
	c4.5-4.4,5.6-11.2,2.8-16.7c-2.9-5.5-9-8.7-15.2-7.6c-8.8,1.5-17.7,2.3-26.9,2.3c-86.5,0-156.7-70.4-156.7-157.1
	c0-58.8,32.1-109.9,79.7-136.9c5.4-3.1,8.2-9.4,6.9-15.4s-6.5-10.6-12.8-11.2C359.5,120.4,353.8,120.1,348.1,120L348.1,120z"/>
</svg>
