<?xml version="1.0" encoding="utf-8"?>
<!-- Generator: Adobe Illustrator 26.1.0, SVG Export Plug-In . SVG Version: 6.00 Build 0)  -->
<svg version="1.1" id="Layer_1" xmlns="http://www.w3.org/2000/svg" xmlns:xlink="http://www.w3.org/1999/xlink" x="0px" y="0px"
	 viewBox="0 0 640 640" style="enable-background:new 0 0 640 640;" xml:space="preserve">
<style type="text/css">
	.st0{display:none;fill:#008CFF;}
	.st1{fill:#C8CACC;}
</style>
<path class="st0" d="M302.9,119.5c10.4,4.7,17.1,15,17.1,26.5v348c0,11.4-6.7,21.7-17.1,26.5s-22.7,2.8-31.2-4.8L149.4,407H88
	c-32,0-58-26-58-58v-58c0-32,26-58,58-58h61.4l122.3-108.7C280.2,116.7,292.5,114.9,302.9,119.5z"/>
<path class="st1" d="M302.6,119.5c10.4,4.7,17.1,15,17.1,26.5v348c0,11.4-6.7,21.8-17.1,26.5c-10.4,4.7-22.7,2.8-31.2-4.8L149.2,407
	H87.7c-32,0-58-26-58-58v-58c0-32,26-58,58-58h61.4l122.3-108.7C280,116.7,292.2,114.9,302.6,119.5z M414.9,239.3l49.8,49.8
	l49.8-49.8c8.5-8.5,22.3-8.5,30.7,0s8.5,22.3,0,30.7l-49.8,49.8l49.8,49.8c8.5,8.5,8.5,22.3,0,30.7c-8.5,8.4-22.3,8.5-30.7,0
	l-49.8-49.8l-49.8,49.8c-8.5,8.5-22.3,8.5-30.7,0c-8.4-8.5-8.5-22.3,0-30.7l49.8-49.8L384.2,270c-8.5-8.5-8.5-22.3,0-30.7
	C392.7,230.9,406.5,230.8,414.9,239.3z"/>
</svg>
