<?xml version="1.0" encoding="UTF-8" standalone="no"?>
<!-- Generator: Adobe Illustrator 26.1.0, SVG Export Plug-In . SVG Version: 6.00 Build 0)  -->

<svg
   version="1.1"
   id="Layer_1"
   x="0px"
   y="0px"
   viewBox="0 0 640 640"
   style="enable-background:new 0 0 640 640;"
   xml:space="preserve"
   sodipodi:docname="bell.svg"
   inkscape:version="1.4 (e7c3feb100, 2024-10-09)"
   xmlns:inkscape="http://www.inkscape.org/namespaces/inkscape"
   xmlns:sodipodi="http://sodipodi.sourceforge.net/DTD/sodipodi-0.dtd"
   xmlns="http://www.w3.org/2000/svg"
   xmlns:svg="http://www.w3.org/2000/svg"><defs
   id="defs1" /><sodipodi:namedview
   id="namedview1"
   pagecolor="#ffffff"
   bordercolor="#000000"
   borderopacity="0.25"
   inkscape:showpageshadow="2"
   inkscape:pageopacity="0.0"
   inkscape:pagecheckerboard="0"
   inkscape:deskcolor="#d1d1d1"
   showguides="false"
   inkscape:zoom="1.1625"
   inkscape:cx="320.43011"
   inkscape:cy="320"
   inkscape:window-width="1868"
   inkscape:window-height="978"
   inkscape:window-x="0"
   inkscape:window-y="0"
   inkscape:window-maximized="1"
   inkscape:current-layer="Layer_1" />
<style
   type="text/css"
   id="style1">
	.st0{fill:#C8CACC;}
</style>

<path
   d="m 319.97931,80.00315 c -16.59353,0 -29.99961,13.40607 -29.99961,29.99959 v 17.99977 c -68.4366,13.87482 -119.99843,74.43653 -119.99843,146.99807 v 17.62478 c 0,44.06191 -16.21854,86.62386 -45.46816,119.62343 l -6.9374,7.78115 c -7.8749,8.81239 -9.74988,21.46847 -4.9687,32.24958 4.7812,10.7811 15.56232,17.71851 27.37466,17.71851 h 359.99528 c 11.81235,0 22.4997,-6.93741 27.37464,-17.71851 4.87494,-10.78111 2.90621,-23.43719 -4.96869,-32.24958 l -6.9374,-7.78115 C 486.19588,379.24922 469.97735,336.78104 469.97735,292.62536 v -17.62478 c 0,-72.56154 -51.56183,-133.12325 -119.99843,-146.99807 v -17.99977 c 0,-16.59352 -13.40609,-29.99959 -29.99961,-29.99959 z m 42.46819,462.46269 c 11.24985,-11.24986 17.53103,-26.53091 17.53103,-42.46821 H 319.97931 259.9801 c 0,15.9373 6.28116,31.21835 17.53101,42.46821 11.24986,11.24985 26.53091,17.53101 42.4682,17.53101 15.93729,0 31.21833,-6.28116 42.46819,-17.53101 z"
   id="path1-7"
   style="fill:#c8cacc;fill-opacity:1;stroke-width:0.937487" /></svg>
