<?xml version="1.0" encoding="utf-8"?>
<!-- Generator: Adobe Illustrator 27.9.0, SVG Export Plug-In . SVG Version: 6.00 Build 0)  -->
<svg version="1.1" id="Layer_1" xmlns="http://www.w3.org/2000/svg" xmlns:xlink="http://www.w3.org/1999/xlink" x="0px" y="0px"
	 viewBox="0 0 640 640" style="enable-background:new 0 0 640 640;" xml:space="preserve">
<style type="text/css">
	.st0{fill:#C8CACC;}
</style>
<path class="st0" d="M187.2,181.1h47.1v85.7H133.7l27.1-67.8C165.1,188.3,175.5,181.1,187.2,181.1z M277.1,266.9v-85.7h72.5
	c8.7,0,16.9,3.9,22.3,10.7l60,75H277.1z M505.9,267.8l-89.3-111.6c-16.2-20.4-40.9-32.1-67-32.1H187.2c-35.1,0-66.6,21.3-79.6,53.8
	l-37.1,92.9c-21.2,8.4-36.2,29-36.2,53.2v100c0,15.8,12.8,28.6,28.6,28.6h29.7c6.8,40.5,42.1,71.4,84.6,71.4s77.8-30.9,84.6-71.4
	h116.6c6.8,40.5,42.1,71.4,84.6,71.4s77.8-30.9,84.6-71.4h29.7c15.8,0,28.6-12.8,28.6-28.6v-42.9
	C605.7,322.9,562.1,274.9,505.9,267.8z M422.4,424c7.6-22.4,31.9-34.5,54.3-26.9c22.4,7.6,34.5,31.9,26.9,54.3
	c-0.1,0.4-0.3,0.7-0.4,1.1c-7.6,22.4-31.9,34.5-54.3,26.9s-34.5-31.9-26.9-54.3C422.1,424.7,422.3,424.4,422.4,424z M177.1,395.4
	c23.7,0,42.9,19.2,42.9,42.9c0,23.7-19.2,42.9-42.9,42.9s-42.9-19.2-42.9-42.9C134.3,414.6,153.5,395.4,177.1,395.4z"/>
</svg>
