<?xml version="1.0" encoding="utf-8"?>
<!-- Generator: Adobe Illustrator 27.9.0, SVG Export Plug-In . SVG Version: 6.00 Build 0)  -->
<svg version="1.1" id="Layer_1" xmlns="http://www.w3.org/2000/svg" xmlns:xlink="http://www.w3.org/1999/xlink" x="0px" y="0px"
	 viewBox="0 0 640 640" style="enable-background:new 0 0 640 640;" xml:space="preserve">
<style type="text/css">
	.st0{fill:#C8CACC;}
</style>
<path class="st0" d="M68.4,424.3L21.2,343c-4.9-8.5-0.7-19.3,8.6-22.2l33.1-10.4c9.8-3.1,20.5-1,28.5,5.5l37.5,30.9l122.8-29.6
	l-103.3-99.9c-7.2-7-5.7-19.1,3-24.1l33-19.1c9.6-5.5,21.2-5.5,30.7,0.2l182,107.8l103.4-24.9c15.3-3.7,31.3-4.4,46.8-2l41.5,6.4
	c28.9,4.4,42.2,38.6,23.6,61.3c-26.5,32.4-62.4,55.9-102.8,67l-282.7,78c-10.5,2.9-21.6,2.9-32.2,0l-108-29.4
	C79,436.3,72.4,431.3,68.4,424.3L68.4,424.3z"/>
</svg>
