<?xml version="1.0" encoding="utf-8"?>
<!-- Generator: Adobe Illustrator 27.9.0, SVG Export Plug-In . SVG Version: 6.00 Build 0)  -->
<svg version="1.1" id="Layer_1" xmlns="http://www.w3.org/2000/svg" xmlns:xlink="http://www.w3.org/1999/xlink" x="0px" y="0px"
	 viewBox="0 0 640 640" style="enable-background:new 0 0 640 640;" xml:space="preserve">
<style type="text/css">
	.st0{fill:#C8CACC;}
</style>
<path class="st0" d="M384,192c21.2,0,38.4-17.2,38.4-38.4s-17.2-38.4-38.4-38.4c-21.2,0-38.4,17.2-38.4,38.4S362.8,192,384,192z
	 M405.8,243.2l-49.4-39c-13.8-10.9-33.4-11-47.3-0.2l-66.5,51.4c-24.6,19-22.8,56.6,3.4,73.3l48.4,30.7V448
	c0,14.2,11.4,25.6,25.6,25.6c14.2,0,25.6-11.4,25.6-25.6V345.6c0-8.6-4.2-16.6-11.4-21.3L300,301.5l48.2-38.8l32.6,26.1
	c4.6,3.6,10.2,5.6,16,5.6H448c14.2,0,25.6-11.4,25.6-25.6c0-14.2-11.4-25.6-25.6-25.6H405.8z M108.8,422.4
	c0-31.8,25.8-57.6,57.6-57.6s57.6,25.8,57.6,57.6S198.2,480,166.4,480S108.8,454.2,108.8,422.4L108.8,422.4z M268.8,422.4
	c0-56.6-45.8-102.4-102.4-102.4S64,365.8,64,422.4s45.8,102.4,102.4,102.4S268.8,479,268.8,422.4z M416,422.4
	c0-31.8,25.8-57.6,57.6-57.6s57.6,25.8,57.6,57.6S505.4,480,473.6,480S416,454.2,416,422.4L416,422.4z M576,422.4
	c0-56.6-45.8-102.4-102.4-102.4s-102.4,45.8-102.4,102.4S417,524.8,473.6,524.8S576,479,576,422.4z"/>
</svg>
