<?xml version="1.0" encoding="utf-8"?>
<!-- Generator: Adobe Illustrator 27.9.0, SVG Export Plug-In . SVG Version: 6.00 Build 0)  -->
<svg version="1.1" id="Layer_1" xmlns="http://www.w3.org/2000/svg" xmlns:xlink="http://www.w3.org/1999/xlink" x="0px" y="0px"
	 viewBox="0 0 640 640" style="enable-background:new 0 0 640 640;" xml:space="preserve">
<style type="text/css">
	.st0{fill:#C8CACC;}
</style>
<path class="st0" d="M257.5,138.8c0-10.4-8.4-18.8-18.8-18.8s-18.8,8.4-18.8,18.8V170c-27.6,0-50,22.4-50,50h-31.2
	c-10.4,0-18.8,8.4-18.8,18.8s8.4,18.8,18.8,18.8H170v43.8h-31.2c-10.4,0-18.8,8.4-18.8,18.8s8.4,18.8,18.8,18.8H170v43.8h-31.2
	c-10.4,0-18.8,8.4-18.8,18.8s8.4,18.8,18.8,18.8H170c0,27.6,22.4,50,50,50v31.2c0,10.4,8.4,18.8,18.8,18.8s18.8-8.4,18.8-18.8V470
	h43.8v31.2c0,10.4,8.4,18.8,18.8,18.8s18.8-8.4,18.8-18.8V470h43.8v31.2c0,10.4,8.4,18.8,18.8,18.8s18.8-8.4,18.8-18.8V470
	c27.6,0,50-22.4,50-50h31.2c10.4,0,18.8-8.4,18.8-18.8s-8.4-18.8-18.8-18.8H470v-43.8h31.2c10.4,0,18.8-8.4,18.8-18.8
	s-8.4-18.8-18.8-18.8H470v-43.8h31.2c10.4,0,18.8-8.4,18.8-18.8s-8.4-18.8-18.8-18.8H470c0-27.6-22.4-50-50-50v-31.2
	c0-10.4-8.4-18.8-18.8-18.8s-18.8,8.4-18.8,18.8V170h-43.8v-31.2c0-10.4-8.4-18.8-18.8-18.8s-18.8,8.4-18.8,18.8V170h-43.8V138.8z
	 M245,220h150c13.8,0,25,11.2,25,25v150c0,13.8-11.2,25-25,25H245c-13.8,0-25-11.2-25-25V245C220,231.2,231.2,220,245,220z M395,245
	H245v150h150V245z"/>
</svg>
