<?xml version="1.0" encoding="utf-8"?>
<!-- Generator: Adobe Illustrator 27.9.0, SVG Export Plug-In . SVG Version: 6.00 Build 0)  -->
<svg version="1.1" id="Layer_1" xmlns="http://www.w3.org/2000/svg" xmlns:xlink="http://www.w3.org/1999/xlink" x="0px" y="0px"
	 viewBox="0 0 640 640" style="enable-background:new 0 0 640 640;" xml:space="preserve">
<style type="text/css">
	.st0{fill:#C8CACC;}
</style>
<path class="st0" d="M64,320C64,178.6,178.6,64,320,64s256,114.6,256,256S461.4,576,320,576S64,461.4,64,320z M320,352
	c-17.7,0-32-14.3-32-32c0-17.7,14.3-32,32-32c17.7,0,32,14.3,32,32C352,337.7,337.7,352,320,352z M224,320c0,53,43,96,96,96
	s96-43,96-96s-43-96-96-96S224,267,224,320z M160,304c0-35,17.5-71.1,45.2-98.8S269,160,304,160c8.8,0,16-7.2,16-16s-7.2-16-16-16
	c-45.4,0-89.2,22.3-121.5,54.5S128,258.6,128,304c0,8.8,7.2,16,16,16S160,312.8,160,304z"/>
</svg>
