<?xml version="1.0" encoding="utf-8"?>
<!-- Generator: Adobe Illustrator 27.9.0, SVG Export Plug-In . SVG Version: 6.00 Build 0)  -->
<svg version="1.1" id="Layer_1" xmlns="http://www.w3.org/2000/svg" xmlns:xlink="http://www.w3.org/1999/xlink" x="0px" y="0px"
	 viewBox="0 0 640 640" style="enable-background:new 0 0 640 640;" xml:space="preserve">
<style type="text/css">
	.st0{fill:#C8CACC;}
</style>
<path class="st0" d="M320,144c-106.1,0-193.6,79.4-206.4,182c9.4-3.8,19.6-6,30.4-6c26.5,0,48,21.5,48,48v128c0,26.5-21.5,48-48,48
	c-44.2,0-80-35.8-80-80v-16v-48v-48C64,210.6,178.6,96,320,96s256,114.6,256,256v48v48v16c0,44.2-35.8,80-80,80
	c-26.5,0-48-21.5-48-48V368c0-26.5,21.5-48,48-48c10.8,0,21,2.1,30.4,6C513.6,223.4,426.1,144,320,144z"/>
</svg>
