<?xml version="1.0" encoding="UTF-8" standalone="no"?>
<svg
   viewBox="0 0 640 640"
   version="1.1"
   id="svg1"
   sodipodi:docname="loHibernate.svg"
   inkscape:version="1.4.3 (0d15f75042, 2025-12-25)"
   xmlns:inkscape="http://www.inkscape.org/namespaces/inkscape"
   xmlns:sodipodi="http://sodipodi.sourceforge.net/DTD/sodipodi-0.dtd"
   xmlns="http://www.w3.org/2000/svg"
   xmlns:svg="http://www.w3.org/2000/svg">
  <defs
     id="defs1" />
  <sodipodi:namedview
     id="namedview1"
     pagecolor="#505050"
     bordercolor="#eeeeee"
     borderopacity="1"
     inkscape:showpageshadow="0"
     inkscape:pageopacity="0"
     inkscape:pagecheckerboard="0"
     inkscape:deskcolor="#505050"
     inkscape:zoom="0.75026896"
     inkscape:cx="249.24395"
     inkscape:cy="352.54024"
     inkscape:window-width="1868"
     inkscape:window-height="978"
     inkscape:window-x="0"
     inkscape:window-y="0"
     inkscape:window-maximized="1"
     inkscape:current-layer="svg1" />
  <!--!Font Awesome Free 7.2.0 by @fontawesome - https://fontawesome.com License - https://fontawesome.com/license/free Copyright 2026 Fonticons, Inc.-->
  <path
     d="m 482.5,320 c 0,89.76562 -72.73438,162.5 -162.5,162.5 -89.76563,0 -162.5,-72.73438 -162.5,-162.5 0,-89.76563 72.73437,-162.5 162.5,-162.5 89.76562,0 162.5,72.73437 162.5,162.5 z M 120,320 c 0,110.46875 89.53125,200 200,200 110.46875,0 200,-89.53125 200,-200 C 520,209.53125 430.46875,120 320,120 209.53125,120 120,209.53125 120,320 Z M 301.25,213.75 V 320 c 0,6.25 3.125,12.10937 8.35937,15.625 l 75,50 c 8.59375,5.78125 20.23438,3.4375 26.01563,-5.23438 5.78125,-8.67187 3.4375,-20.23437 -5.23438,-26.01562 L 338.75,310 V 213.75 C 338.75,203.35937 330.39062,195 320,195 c -10.39063,0 -18.75,8.35937 -18.75,18.75 z"
     id="path1"
     style="stroke-width:0.78125;fill:#c8cacc;fill-opacity:1" />
</svg>
