<?xml version="1.0" encoding="UTF-8" standalone="no"?>
<svg
   viewBox="0 0 640 640"
   version="1.1"
   id="svg1"
   sodipodi:docname="loSuspend.svg"
   inkscape:version="1.4.3 (0d15f75042, 2025-12-25)"
   xmlns:inkscape="http://www.inkscape.org/namespaces/inkscape"
   xmlns:sodipodi="http://sodipodi.sourceforge.net/DTD/sodipodi-0.dtd"
   xmlns="http://www.w3.org/2000/svg"
   xmlns:svg="http://www.w3.org/2000/svg">
  <defs
     id="defs1" />
  <sodipodi:namedview
     id="namedview1"
     pagecolor="#505050"
     bordercolor="#eeeeee"
     borderopacity="1"
     inkscape:showpageshadow="0"
     inkscape:pageopacity="0"
     inkscape:pagecheckerboard="0"
     inkscape:deskcolor="#505050"
     inkscape:zoom="1.0046489"
     inkscape:cx="314.53776"
     inkscape:cy="315.03545"
     inkscape:window-width="1868"
     inkscape:window-height="978"
     inkscape:window-x="0"
     inkscape:window-y="0"
     inkscape:window-maximized="1"
     inkscape:current-layer="svg1" />
  <!--!Font Awesome Free 7.2.0 by @fontawesome - https://fontawesome.com License - https://fontawesome.com/license/free Copyright 2026 Fonticons, Inc.-->
  <path
     d="M 334.7986,158.04688 C 251.12673,164.6875 185.34548,234.6875 185.34548,320 c 0,89.76562 72.73437,162.5 162.5,162.5 26.01562,0 50.54687,-6.09375 72.34375,-16.95313 C 339.40798,447.26562 279.09548,375.07812 279.09548,288.75 c 0,-51.40625 21.40625,-97.73438 55.70312,-130.70312 z M 147.84548,320 c 0,-110.46875 89.53125,-200 200,-200 15.15625,0 30,1.71875 44.29687,4.92188 7.73438,1.71875 13.51563,8.20312 14.45313,16.01562 0.9375,7.8125 -3.125,15.46875 -10.23438,19.0625 -47.34375,23.59375 -79.76562,72.42187 -79.76562,128.75 0,79.375 64.375,143.75 143.75,143.75 3.90625,0 7.73437,-0.15625 11.5625,-0.46875 7.89062,-0.625 15.3125,3.75 18.59375,11.01562 3.28125,7.26563 1.5625,15.70313 -4.14063,21.17188 C 450.4236,498.75 401.59548,520 347.84548,520 c -110.46875,0 -200,-89.53125 -200,-200 z"
     id="path1"
     style="stroke-width:0.78125;fill:#c8cacc;fill-opacity:1" />
</svg>
