<?xml version="1.0" encoding="utf-8"?>
<!-- Generator: Adobe Illustrator 27.9.0, SVG Export Plug-In . SVG Version: 6.00 Build 0)  -->
<svg version="1.1" id="Layer_1" xmlns="http://www.w3.org/2000/svg" xmlns:xlink="http://www.w3.org/1999/xlink" x="0px" y="0px"
	 viewBox="0 0 640 640" style="enable-background:new 0 0 640 640;" xml:space="preserve">
<style type="text/css">
	.st0{fill:#C8CACC;}
</style>
<path class="st0" d="M128,96c-35.3,0-64,28.7-64,64v64c0,35.3,28.7,64,64,64h384c35.3,0,64-28.7,64-64v-64c0-35.3-28.7-64-64-64H128
	z M408,168c13.3,0,24,10.7,24,24s-10.7,24-24,24s-24-10.7-24-24S394.7,168,408,168z M456,192c0-13.3,10.7-24,24-24s24,10.7,24,24
	s-10.7,24-24,24S456,205.3,456,192z M128,352c-35.3,0-64,28.7-64,64v64c0,35.3,28.7,64,64,64h384c35.3,0,64-28.7,64-64v-64
	c0-35.3-28.7-64-64-64H128z M408,424c13.3,0,24,10.7,24,24s-10.7,24-24,24s-24-10.7-24-24S394.7,424,408,424z M464,448
	c0-13.3,10.7-24,24-24s24,10.7,24,24s-10.7,24-24,24S464,461.3,464,448z"/>
</svg>
