<?xml version="1.0" encoding="utf-8"?>
<!-- Generator: Adobe Illustrator 27.9.0, SVG Export Plug-In . SVG Version: 6.00 Build 0)  -->
<svg version="1.1" id="Layer_1" xmlns="http://www.w3.org/2000/svg" xmlns:xlink="http://www.w3.org/1999/xlink" x="0px" y="0px"
	 viewBox="0 0 640 640" style="enable-background:new 0 0 640 640;" xml:space="preserve">
<style type="text/css">
	.st0{fill:#C8CACC;}
</style>
<g>
	<path class="st0" d="M442.4,80H197.6c-31.8,0-57.6,25.8-57.6,57.6v364.8c0,31.8,25.8,57.6,57.6,57.6h244.8
		c31.8,0,57.6-25.8,57.6-57.6V137.6C500,105.8,474.2,80,442.4,80z M320,128c26.5,0,48,21.5,48,48s-21.5,48-48,48s-48-21.5-48-48
		S293.5,128,320,128z M320,500c-59.7,0-108-48.3-108-108s48.3-108,108-108s108,48.3,108,108S379.7,500,320,500z"/>
	<circle class="st0" cx="320" cy="392" r="60"/>
</g>
</svg>
