<?xml version="1.0" encoding="utf-8"?>
<!-- Generator: Adobe Illustrator 26.1.0, SVG Export Plug-In . SVG Version: 6.00 Build 0)  -->
<svg version="1.1" xmlns="http://www.w3.org/2000/svg" xmlns:xlink="http://www.w3.org/1999/xlink" x="0px" y="0px"
	 viewBox="0 0 640 640" style="enable-background:new 0 0 640 640;" xml:space="preserve">
<style type="text/css">
	.st0{fill:#C8CACC;}
	.st1{display:none;fill:#C8CACC;}
</style>
<g id="Layer_1">
	<path class="st0" d="M499.3,617.9c0-23.2-0.2-46.5,0-69.7c0-5.1-1.3-6.8-6.6-6.7c-26.6,0.2-53.1,0.1-79.7,0.1c-7,0-7.1-0.2-7.1-7.1
		c0-9,0-18,0-27c0-6.6,0.1-6.7,6.9-6.7H492c7.2,0,7.2,0,7.2-7.4c0-26.4,0-52.9,0-79.3c0-6.8,0-6.8,6.8-6.8c9.3,0,18.6,0.2,27.9-0.1
		c4.8-0.2,6,1.7,6,6.2c-0.1,26.8,0,53.6,0,80.4c0,7,0,7,7,7l71,0.1v40.7c-23.8,0-47.6,0-71.4-0.1c-6.6,0-6.6,0-6.7,6.9
		c-0.1,23.2-0.1,46.4-0.1,69.5L499.3,617.9z"/>
	<path class="st0" d="M98,407.4c11.7,0,23.4,0.1,35-0.1c4.6-0.1,5.7,1.6,5.7,5.9c-0.2,21-0.1,42-0.1,63c0,15.9,8.4,24.5,24.4,24.6
		c20.8,0.2,41.6,0.2,62.4,0c5.1,0,6.8,1.5,6.6,6.7c-0.4,9.6-0.2,19.3,0,29c0.1,4-1.5,5.3-5.4,5.3c-22.3-0.1-44.6,0.2-66.9-0.1
		c-30.6-0.7-55.1-21.6-60.8-51.5c-0.2-1.1-0.6-2.2-1-3.4V407.4z"/>
	<path class="st0" d="M231.8,99.3c0,11.4,0,22.7,0.2,34.1c0.1,4.7-1.6,6.2-6.2,6.2c-21-0.2-42-0.1-63,0c-16.3,0-24.3,8-24.3,24.4
		c0,20.7-0.2,41.4,0.1,62.1c0.1,5.2-1.6,6.8-6.7,6.6c-11.3-0.3-22.7-0.2-34-0.2v-79.5c0.4-1.5,0.9-2.9,1.2-4.4
		c5.8-27.8,29.2-48.3,56.6-49.7c2.4,0,4.7,0.1,7.1,0.1L231.8,99.3z"/>
	<path class="st0" d="M366.1,98c-0.1,11.7-0.3,23.4-0.2,35.1c0,4.4-1.5,5.9-5.9,5.9c-27.2-0.2-54.4-0.2-81.6,0c-4.4,0-6-1.4-5.9-5.8
		c0.2-11.7,0.1-23.4,0.2-35.1L366.1,98z"/>
	<path class="st0" d="M98,273c11.5,0,23,0.2,34.5,0c4.5-0.1,6.3,1.1,6.2,6c-0.2,27.3-0.2,54.5,0,81.8c0,4.9-1.8,6-6.2,5.9
		c-11.5-0.2-23-0.1-34.5-0.1L98,273z"/>
	<path class="st0" d="M406.1,99.3l71.8-0.2c2,0,4,0,6.1-0.1c31.2,3,55.3,28.9,55.8,60.3c0.2,22.4,0,44.8,0.2,67.2
		c0,4.7-1.6,6.2-6.2,6.1c-9.6-0.3-19.3-0.2-28.9,0c-4.2,0.1-5.6-1.4-5.6-5.6c0.2-21,0.1-42.1,0.1-63.1c0-16.3-8.1-24.7-24.6-24.9
		c-20.1-0.2-40.3,0-60.4-0.1c-7.3,0-7.7,0-8-7.5C405.9,120.6,406.1,110,406.1,99.3z"/>
	<path class="st0" d="M539.9,320.2c0,13.6-0.1,27.1,0.1,40.7c0,4.4-1.3,6-5.8,5.9c-9.8-0.3-19.6-0.2-29.4,0c-3.8,0.1-5.5-1-5.5-5.2
		c0.1-27.8,0.1-55.6,0-83.4c0-3.7,1.3-5.2,5-5.1c10.2,0.2,20.3,0.2,30.5,0c4.1-0.1,5.2,1.6,5.2,5.4
		C539.7,292.3,539.9,306.2,539.9,320.2L539.9,320.2z"/>
	<path class="st0" d="M319.4,541.5c-13.7,0-27.4-0.1-41.1,0.1c-4.4,0.1-6-1.3-5.9-5.8c0.2-9.8,0.2-19.7,0-29.5c0-3.8,1-5.6,5.2-5.6
		c27.7,0.1,55.5,0.1,83.2,0c3.7,0,5.2,1.3,5.2,5c-0.1,10.2-0.1,20.3,0,30.5c0,4-1.6,5.4-5.4,5.3
		C346.8,541.5,333.1,541.5,319.4,541.5z"/>
	<path class="st1" d="M229.9,194.2c-19.7,0-35.6,16-35.7,35.7v178.3c0,19.7,16,35.6,35.7,35.7h178.3c19.7,0,35.6-16,35.7-35.7V272.9
		c0-9.5-3.7-18.5-10.4-25.2l-43.1-43.1c-6.7-6.7-15.8-10.4-25.2-10.4H229.9z M229.9,247.7c0-9.8,8-17.8,17.8-17.8c0,0,0,0,0,0h107
		c9.8,0,17.8,8,17.8,17.8c0,0,0,0,0,0v35.7c0,9.8-7.9,17.8-17.8,17.8c0,0,0,0,0,0h-107c-9.8,0-17.8-8-17.8-17.8c0,0,0,0,0,0V247.7z
		 M319,336.8c19.7,0,35.7,16,35.7,35.7c0,19.7-16,35.7-35.7,35.7c-19.7,0-35.7-16-35.7-35.7S299.3,336.8,319,336.8L319,336.8z"/>
	<g>
		<path class="st0" d="M327.7,297.5l-24.4-24.4v85.9c0,12.9,10.5,23.4,23.4,23.4h7.8v-68.4C334.6,307.9,332.1,301.9,327.7,297.5z
			 M437.1,235l-33.2-33.2c-4.4-4.4-10.3-6.9-16.5-6.9h-60.6c-12.9,0-23.4,10.5-23.4,23.4l0,0v35.4c0.3,0.3,0.6,0.6,0.9,0.8
			l33.2,33.2c6.9,7,10.8,16.4,10.9,26.2v68.4h72.3c12.9,0,23.4-10.5,23.4-23.4V251.6C444,245.4,441.5,239.4,437.1,235L437.1,235z"/>
		<path class="st0" d="M334.6,314.1v107.5c0,12.9-10.5,23.4-23.4,23.4h-93.8c-12.9,0-23.4-10.5-23.4-23.4V280.9
			c0-12.9,10.5-23.4,23.4-23.4H278c6.2,0,12.2,2.5,16.5,6.9l33.2,33.2C332.1,301.9,334.6,307.9,334.6,314.1z"/>
	</g>
</g>
<g id="Layer_2">
</g>
</svg>
