<?xml version="1.0" encoding="utf-8"?>
<!-- Generator: Adobe Illustrator 26.1.0, SVG Export Plug-In . SVG Version: 6.00 Build 0)  -->
<svg version="1.1" id="Layer_1" xmlns="http://www.w3.org/2000/svg" xmlns:xlink="http://www.w3.org/1999/xlink" x="0px" y="0px"
	 viewBox="0 0 640 640" style="enable-background:new 0 0 640 640;" xml:space="preserve">
<style type="text/css">
	.st0{display:none;fill:#C8CACC;}
	.st1{fill:#C8CACC;}
</style>
<path class="st0" d="M91.4,177.1c0-31.5,25.6-57.1,57.1-57.1h342.9c31.5,0,57.1,25.6,57.1,57.1v164.6
	c-15.2-13.6-35.2-21.8-57.1-21.8H148.6c-22,0-42,8.2-57.1,21.8V177.1H91.4z M148.6,348.6h342.9c31.5,0,57.1,25.6,57.1,57.1v57.1
	c0,31.5-25.6,57.1-57.1,57.1H148.6c-31.5,0-57.1-25.6-57.1-57.1v-57.1C91.4,374.2,117.1,348.6,148.6,348.6z M377.1,462.9
	c15.8,0,28.6-12.8,28.6-28.6s-12.8-28.6-28.6-28.6s-28.6,12.8-28.6,28.6S361.4,462.9,377.1,462.9z M491.4,434.3
	c0-15.8-12.8-28.6-28.6-28.6s-28.6,12.8-28.6,28.6s12.8,28.6,28.6,28.6S491.4,450.1,491.4,434.3z"/>
<path class="st0" d="M148.5,124c-31.5,0-57.1,25.6-57.1,57.1v285.7c0,31.5,25.6,57.1,57.1,57.1h342.9c31.5,0,57.1-25.6,57.1-57.1
	V181.1c0-31.5-25.6-57.1-57.1-57.1H148.5z M177.1,181.1h285.7c15.8,0,28.6,12.8,28.6,28.6s-12.8,28.6-28.6,28.6H177.1
	c-15.8,0-28.6-12.8-28.6-28.6S161.3,181.1,177.1,181.1z"/>
<path class="st1" d="M164.4,142.2c-24.5,0-44.4,19.9-44.4,44.4v200c0,24.5,19.9,44.4,44.4,44.4h122.2l-7.4,22.2h-48.1
	c-12.3,0-22.2,9.9-22.2,22.2c0,12.3,9.9,22.2,22.2,22.2h177.8c12.3,0,22.2-9.9,22.2-22.2c0-12.3-9.9-22.2-22.2-22.2h-48.1l-7.4-22.2
	h122.2c24.5,0,44.4-19.9,44.4-44.4v-200c0-24.5-19.9-44.4-44.4-44.4H164.4z M475.6,186.7v200H164.4v-200H475.6z"/>
</svg>
