<?xml version="1.0" encoding="utf-8"?>
<!-- Generator: Adobe Illustrator 26.1.0, SVG Export Plug-In . SVG Version: 6.00 Build 0)  -->
<svg version="1.1" id="Layer_1" xmlns="http://www.w3.org/2000/svg" xmlns:xlink="http://www.w3.org/1999/xlink" x="0px" y="0px"
	 viewBox="0 0 640 640" style="enable-background:new 0 0 640 640;" xml:space="preserve">
<style type="text/css">
	.st0{fill:#C8CACC;}
</style>
<path class="st0" d="M402.4,121c3.9,1.6,6.7,5.2,7.5,9.3l15.5,84.3l84.3,15.5c4.1,0.8,7.7,3.6,9.3,7.5c1.6,3.9,1.2,8.4-1.2,11.9
	L469.1,320l48.7,70.5c2.4,3.5,2.9,8,1.2,11.9c-1.6,3.9-5.2,6.7-9.3,7.5l-84.3,15.5l-15.5,84.3c-0.8,4.1-3.6,7.7-7.5,9.3
	c-3.9,1.6-8.4,1.2-11.9-1.2L320,469.1l-70.5,48.7c-3.5,2.4-8,2.9-11.9,1.2s-6.7-5.2-7.5-9.3l-15.5-84.3l-84.3-15.5
	c-4.1-0.8-7.7-3.6-9.3-7.5c-1.6-3.9-1.2-8.4,1.2-11.9l48.7-70.5l-48.7-70.5c-2.4-3.5-2.9-8-1.2-11.9s5.2-6.7,9.3-7.5l84.3-15.5
	l15.5-84.3c0.8-4.1,3.6-7.7,7.5-9.3c3.9-1.6,8.4-1.2,11.9,1.2l70.5,48.7l70.5-48.7C394.1,119.8,398.5,119.3,402.4,121z M245,320
	c0-41.4,33.6-75,75-75s75,33.6,75,75s-33.6,75-75,75S245,361.4,245,320z M420,320c0-55.2-44.8-100-100-100s-100,44.8-100,100
	s44.8,100,100,100S420,375.2,420,320z"/>
</svg>
