<?xml version="1.0" encoding="utf-8"?>
<!-- Generator: Adobe Illustrator 27.9.0, SVG Export Plug-In . SVG Version: 6.00 Build 0)  -->
<svg version="1.1" id="Layer_1" xmlns="http://www.w3.org/2000/svg" xmlns:xlink="http://www.w3.org/1999/xlink" x="0px" y="0px"
	 viewBox="0 0 640 640" style="enable-background:new 0 0 640 640;" xml:space="preserve">
<style type="text/css">
	.st0{fill:#C8CACC;}
</style>
<path class="st0" d="M169.1,266.6c7.7-21.8,20.2-42.3,37.8-59.8c62.5-62.5,163.8-62.5,226.3,0l17.1,17.2H416c-17.7,0-32,14.3-32,32
	s14.3,32,32,32h111.5l0,0h0.4c17.7,0,32-14.3,32-32V144c0-17.7-14.3-32-32-32s-32,14.3-32,32v35.2l-17.5-17.6
	c-87.5-87.5-229.3-87.5-316.8,0c-24.4,24.4-42,53.1-52.8,83.8c-5.9,16.7,2.9,34.9,19.5,40.8C145,292.1,163.2,283.3,169.1,266.6
	L169.1,266.6z M103.1,353.3c-5,1.5-9.8,4.2-13.7,8.2c-4,4-6.7,8.8-8.1,14c-0.3,1.2-0.6,2.5-0.8,3.8c-0.3,1.7-0.4,3.4-0.4,5.1V496
	c0,17.7,14.3,32,32,32s32-14.3,32-32v-35.1l17.6,17.5l0,0c87.5,87.4,229.3,87.4,316.7,0c24.4-24.4,42.1-53.1,52.9-83.8
	c5.9-16.7-2.9-34.9-19.5-40.8c-16.6-5.9-34.9,2.9-40.8,19.5c-7.7,21.8-20.2,42.3-37.8,59.8c-62.5,62.5-163.8,62.5-226.3,0l-0.1-0.1
	l-17.1-17h34.4c17.7,0,32-14.3,32-32s-14.3-32-32-32H112.5c-1.6,0-3.2,0.1-4.8,0.3C106.1,352.5,104.6,352.8,103.1,353.3z"/>
</svg>
